:SAMPLES-PER-SECOND 30
:FULLY-SPECIFIED
:DEGREES
104
root  -0.446396 35.2365 7.42996 176.147 36.8394 174.571
RightUpLeg  -29.7815 -10.5561 -18.6503
RightLeg  50.6534 -7.04725 -9.47257
RightFoot  -7.811 -0.697525 20.7733
RightToes  -1.74624e-010 0 -3.6325e-017
Spine  10.4089 2.99857 -13.8931
Spine1  24.2894 0.97408 1.31688
HEad  -17.2375 29.1276 -12.9865
LeftShoulder1  1.41521 -3.3548 -13.6726
LeftArm  12.458 -10.0966 -59.8263
LeftForeArm  18.8965 -71.4094 -34.7969
LeftHand  -2.28868 -2.91301 31.5264
RightShoulder  0.930343 0.979668 13.9009
RightArm  4.28412 -11.8308 59.6078
RightForeArm  88.266 79.6243 93.9568
RightHand  -2.2696 7.80915 -20.0925
LeftUpLeg  -12.1054 -2.76807 9.02526
LeftLeg  44.7511 -2.64674 -2.3732
LeftFoot  -30.6282 -2.93592 -18.2295
LeftToes  3.7286e-011 -1.5702e-010 -9.70233e-012
105
root  1.03943 35.2584 7.49 176.097 33.8465 174.532
RightUpLeg  -29.6995 -11.2556 -21.2751
RightLeg  49.7381 -6.37778 -8.35306
RightFoot  -3.07047 -1.51617 20.5019
RightToes  -1.74624e-010 0 -3.6325e-017
Spine  10.0084 2.64419 -14.5299
Spine1  24.1274 0.30307 1.89752
HEad  -15.642 28.6853 -12.4984
LeftShoulder1  1.26657 -2.81251 -13.0255
LeftArm  13.0799 -13.3009 -59.9597
LeftForeArm  27.4635 -74.0367 -41.676
LeftHand  -2.12111 -3.05359 28.8782
RightShoulder  0.926343 0.947523 13.9679
RightArm  0.471102 -14.1154 56.9019
RightForeArm  76.3859 79.4895 84.3161
RightHand  -2.26757 7.62538 -20.3457
LeftUpLeg  -10.1096 -3.81019 11.243
LeftLeg  41.7579 -3.91028 -3.32803
LeftFoot  -29.5134 -2.96594 -19.4858
LeftToes  3.7286e-011 -1.5702e-010 -9.70233e-012
106
root  2.71269 35.4667 7.5676 176.762 30.771 174.425
RightUpLeg  -28.8791 -11.5571 -23.9747
RightLeg  47.1991 -7.5572 -8.9476
RightFoot  -1.58154 -1.63956 18.8558
RightToes  -1.74624e-010 0 -3.6325e-017
Spine  9.24808 2.09253 -14.6664
Spine1  23.2656 -0.207849 2.0328
HEad  -13.7949 28.601 -11.7813
LeftShoulder1  1.08288 -2.13309 -12.0969
LeftArm  12.5811 -15.805 -59.1118
LeftForeArm  37.3413 -76.421 -52.1192
LeftHand  -2.00507 -2.86921 27.9513
RightShoulder  0.88002 0.75008 13.8331
RightArm  -3.30921 -16.8952 54.2948
RightForeArm  70.5557 79.3018 80.418
RightHand  -2.19984 7.25986 -20.3044
LeftUpLeg  -8.27677 -5.49361 13.5141
LeftLeg  36.8211 -5.01233 -3.62003
LeftFoot  -26.6551 -2.71493 -21.1735
LeftToes  3.7286e-011 -1.5702e-010 -9.70233e-012
107
root  4.51655 35.8126 7.67391 177.903 27.6223 174.377
RightUpLeg  -26.9535 -11.2356 -26.5426
RightLeg  41.7939 -10.9119 -10.4964
RightFoot  -0.181349 -1.55914 16.0132
RightToes  -1.74624e-010 0 -3.6325e-017
Spine  8.7421 1.30204 -14.3997
Spine1  21.5395 -0.853537 2.01302
HEad  -12.1929 28.8152 -11.3773
LeftShoulder1  0.913285 -1.37586 -11.5543
LeftArm  10.6903 -16.4284 -56.82
LeftForeArm  53.243 -78.4387 -69.3076
LeftHand  -1.9512 -2.68166 27.8325
RightShoulder  0.851858 0.709023 13.3224
RightArm  -6.26392 -19.3921 51.663
RightForeArm  68.4904 79.2216 79.2213
RightHand  -2.11957 6.99088 -19.9986
LeftUpLeg  -6.99538 -7.94928 15.8911
LeftLeg  31.0669 -6.32928 -3.75041
LeftFoot  -21.7846 -2.08037 -23.9804
LeftToes  3.7286e-011 -1.5702e-010 -9.70233e-012
108
root  6.38069 36.1813 7.81641 179.193 24.1981 174.454
RightUpLeg  -23.7769 -9.78877 -28.9726
RightLeg  32.966 -15.1573 -10.5776
RightFoot  6.01402 -2.08119 13.7921
RightToes  -1.74624e-010 0 -3.6325e-017
Spine  8.71906 0.377168 -13.5704
Spine1  19.4027 -1.69427 2.28091
HEad  -11.1064 28.6066 -11.4686
LeftShoulder1  0.793116 -0.743617 -11.4971
LeftArm  8.17649 -15.8784 -53.7066
LeftForeArm  71.989 -79.1774 -88.3669
LeftHand  -1.95795 -2.69986 27.8634
RightShoulder  0.863141 0.936169 12.4513
RightArm  -8.48248 -21.1378 48.9048
RightForeArm  68.596 79.2239 79.4883
RightHand  -2.10817 6.98143 -19.9088
LeftUpLeg  -6.68573 -9.78589 18.5193
LeftLeg  25.9924 -5.49585 -2.60014
LeftFoot  -14.422 -0.657668 -27.448
LeftToes  3.7286e-011 -1.5702e-010 -9.70233e-012
109
root  8.26724 36.3099 8.01051 -179.476 20.6504 174.424
RightUpLeg  -20.31 -6.82036 -31.4833
RightLeg  23.4242 -17.4755 -8.35831
RightFoot  14.2997 -3.64456 16.179
RightToes  -1.74624e-010 0 -3.6325e-017
Spine  8.89541 -0.401907 -12.3626
Spine1  17.3106 -2.44826 2.81206
HEad  -10.6378 27.6661 -11.9489
LeftShoulder1  0.722875 -0.389066 -11.3759
LeftArm  6.15504 -15.2309 -51.3707
LeftForeArm  84.038 -79.0599 -99.6671
LeftHand  -2.01808 -2.8095 28.3144
RightShoulder  0.843191 1.06259 11.3514
RightArm  -10.3071 -21.9064 46.0916
RightForeArm  71.4338 79.3056 82.4294
RightHand  -2.16358 7.06397 -20.2834
LeftUpLeg  -8.13543 -8.71949 21.0749
LeftLeg  23.8022 -0.933326 -0.084477
LeftFoot  -5.73002 1.49023 -29.4478
LeftToes  3.7286e-011 -1.5702e-010 -9.70233e-012
